<svg width="1200" height="900" viewBox="0 0 1200 900" fill="none" xmlns="http://www.w3.org/2000/svg">
  <defs>
    <linearGradient id="bg1" x1="0" y1="0" x2="1200" y2="900" gradientUnits="userSpaceOnUse">
      <stop stop-color="#0F172A"/>
      <stop offset="0.5" stop-color="#1D4ED8"/>
      <stop offset="1" stop-color="#14B8A6"/>
    </linearGradient>
  </defs>
  <rect width="1200" height="900" rx="44" fill="url(#bg1)"/>
  <circle cx="927" cy="120" r="120" fill="#93C5FD" fill-opacity="0.18"/>
  <circle cx="240" cy="740" r="160" fill="#5EEAD4" fill-opacity="0.17"/>
  <rect x="130" y="180" width="190" height="260" rx="26" fill="#E0F2FE" fill-opacity="0.14"/>
  <rect x="350" y="155" width="700" height="520" rx="28" fill="#F8FAFC" fill-opacity="0.12"/>
  <rect x="392" y="208" width="608" height="58" rx="18" fill="#F8FAFC" fill-opacity="0.22"/>
  <rect x="392" y="290" width="430" height="30" rx="15" fill="#F8FAFC" fill-opacity="0.15"/>
  <rect x="392" y="342" width="500" height="30" rx="15" fill="#F8FAFC" fill-opacity="0.15"/>
  <rect x="392" y="394" width="350" height="30" rx="15" fill="#F8FAFC" fill-opacity="0.15"/>
  <rect x="392" y="474" width="356" height="110" rx="24" fill="#F8FAFC" fill-opacity="0.16"/>
  <rect x="782" y="470" width="170" height="110" rx="26" fill="#0F172A" fill-opacity="0.38"/>
  <path d="M210 355V260C210 230.177 234.177 206 264 206H346C375.823 206 400 230.177 400 260V355" stroke="#E2E8F0" stroke-width="20" stroke-linecap="round"/>
  <path d="M245 355V391H333V355" stroke="#E2E8F0" stroke-width="18" stroke-linecap="round"/>
  <path d="M282 255V215H298V255" stroke="#E2E8F0" stroke-width="16" stroke-linecap="round"/>
  <path d="M264 255H332" stroke="#E2E8F0" stroke-width="16" stroke-linecap="round"/>
  <path d="M245 402H333" stroke="#E2E8F0" stroke-width="18" stroke-linecap="round"/>
  <path d="M470 548H712" stroke="#BBF7D0" stroke-width="18" stroke-linecap="round"/>
  <path d="M470 580H655" stroke="#BBF7D0" stroke-width="18" stroke-linecap="round"/>
  <path d="M804 505H904" stroke="#C7D2FE" stroke-width="12" stroke-linecap="round"/>
  <path d="M804 540H878" stroke="#C7D2FE" stroke-width="12" stroke-linecap="round"/>
  <path d="M160 650H1040" stroke="#E2E8F0" stroke-opacity="0.32" stroke-width="12" stroke-linecap="round"/>
  <text x="126" y="760" fill="#F8FAFC" font-family="Segoe UI, Arial, sans-serif" font-size="70" font-weight="700">CLINIC FLOW</text>
</svg>
